<?xml version="1.0" encoding="UTF-8" standalone="no"?>
<!DOCTYPE svg PUBLIC "-//W3C//DTD SVG 1.1//EN"
 "http://www.w3.org/Graphics/SVG/1.1/DTD/svg11.dtd">
<!-- Generated by graphviz version 2.36.0 (20140111.2315)
 -->
<!-- Title: G Pages: 1 -->
<svg width="885pt" height="123pt"
 viewBox="0.00 0.00 885.20 123.44" xmlns="http://www.w3.org/2000/svg" xmlns:xlink="http://www.w3.org/1999/xlink">
<g id="graph0" class="graph" transform="scale(1 1) rotate(0) translate(21.6 101.839)">
<title>G</title>
<polygon fill="#111111" stroke="none" points="-21.6,21.6 -21.6,-101.839 863.6,-101.839 863.6,21.6 -21.6,21.6"/>
<!-- ../deps/encoding/encoding&#45;indexes.js -->
<g id="node1" class="node"><title>../deps/encoding/encoding&#45;indexes.js</title>
<path fill="none" stroke="#cfffac" d="M833.833,-39.7387C833.833,-39.7387 602.167,-39.7387 602.167,-39.7387 598.333,-39.7387 594.5,-35.9054 594.5,-32.0721 594.5,-32.0721 594.5,-24.4054 594.5,-24.4054 594.5,-20.5721 598.333,-16.7387 602.167,-16.7387 602.167,-16.7387 833.833,-16.7387 833.833,-16.7387 837.667,-16.7387 841.5,-20.5721 841.5,-24.4054 841.5,-24.4054 841.5,-32.0721 841.5,-32.0721 841.5,-35.9054 837.667,-39.7387 833.833,-39.7387"/>
<text text-anchor="middle" x="718" y="-24.5387" font-family="Arial" font-size="14.00" fill="#cfffac">../deps/encoding/encoding&#45;indexes.js</text>
</g>
<!-- ../deps/encoding/encoding.js -->
<g id="node2" class="node"><title>../deps/encoding/encoding.js</title>
<path fill="none" stroke="#c6c5fe" d="M550.333,-39.7387C550.333,-39.7387 371.667,-39.7387 371.667,-39.7387 367.833,-39.7387 364,-35.9054 364,-32.0721 364,-32.0721 364,-24.4054 364,-24.4054 364,-20.5721 367.833,-16.7387 371.667,-16.7387 371.667,-16.7387 550.333,-16.7387 550.333,-16.7387 554.167,-16.7387 558,-20.5721 558,-24.4054 558,-24.4054 558,-32.0721 558,-32.0721 558,-35.9054 554.167,-39.7387 550.333,-39.7387"/>
<text text-anchor="middle" x="461" y="-24.5387" font-family="Arial" font-size="14.00" fill="#c6c5fe">../deps/encoding/encoding.js</text>
</g>
<!-- ../deps/encoding/encoding.js&#45;&gt;../deps/encoding/encoding&#45;indexes.js -->
<g id="edge1" class="edge"><title>../deps/encoding/encoding.js&#45;&gt;../deps/encoding/encoding&#45;indexes.js</title>
<path fill="none" stroke="#757575" d="M558.041,-28.2387C566.658,-28.2387 575.479,-28.2387 584.333,-28.2387"/>
<polygon fill="#757575" stroke="#757575" points="584.335,-31.7388 594.334,-28.2387 584.334,-24.7388 584.335,-31.7388"/>
</g>
<!-- main.js -->
<g id="node3" class="node"><title>main.js</title>
<path fill="none" stroke="#c6c5fe" d="M53.8333,-39.7387C53.8333,-39.7387 8.16667,-39.7387 8.16667,-39.7387 4.33333,-39.7387 0.5,-35.9054 0.5,-32.0721 0.5,-32.0721 0.5,-24.4054 0.5,-24.4054 0.5,-20.5721 4.33333,-16.7387 8.16667,-16.7387 8.16667,-16.7387 53.8333,-16.7387 53.8333,-16.7387 57.6667,-16.7387 61.5,-20.5721 61.5,-24.4054 61.5,-24.4054 61.5,-32.0721 61.5,-32.0721 61.5,-35.9054 57.6667,-39.7387 53.8333,-39.7387"/>
<text text-anchor="middle" x="31" y="-24.5387" font-family="Arial" font-size="14.00" fill="#c6c5fe">main.js</text>
</g>
<!-- types/multipart.js -->
<g id="node4" class="node"><title>types/multipart.js</title>
<path fill="none" stroke="#c6c5fe" d="M220.333,-80.7387C220.333,-80.7387 113.667,-80.7387 113.667,-80.7387 109.833,-80.7387 106,-76.9054 106,-73.0721 106,-73.0721 106,-65.4054 106,-65.4054 106,-61.5721 109.833,-57.7387 113.667,-57.7387 113.667,-57.7387 220.333,-57.7387 220.333,-57.7387 224.167,-57.7387 228,-61.5721 228,-65.4054 228,-65.4054 228,-73.0721 228,-73.0721 228,-76.9054 224.167,-80.7387 220.333,-80.7387"/>
<text text-anchor="middle" x="167" y="-65.5387" font-family="Arial" font-size="14.00" fill="#c6c5fe">types/multipart.js</text>
</g>
<!-- main.js&#45;&gt;types/multipart.js -->
<g id="edge2" class="edge"><title>main.js&#45;&gt;types/multipart.js</title>
<path fill="none" stroke="#757575" d="M61.7389,-37.338C78.679,-42.5211 100.279,-49.13 119.42,-54.9867"/>
<polygon fill="#757575" stroke="#757575" points="118.581,-58.3902 129.168,-57.9692 120.63,-51.6965 118.581,-58.3902"/>
</g>
<!-- types/urlencoded.js -->
<g id="node5" class="node"><title>types/urlencoded.js</title>
<path fill="none" stroke="#c6c5fe" d="M227.833,-39.7387C227.833,-39.7387 106.167,-39.7387 106.167,-39.7387 102.333,-39.7387 98.5,-35.9054 98.5,-32.0721 98.5,-32.0721 98.5,-24.4054 98.5,-24.4054 98.5,-20.5721 102.333,-16.7387 106.167,-16.7387 106.167,-16.7387 227.833,-16.7387 227.833,-16.7387 231.667,-16.7387 235.5,-20.5721 235.5,-24.4054 235.5,-24.4054 235.5,-32.0721 235.5,-32.0721 235.5,-35.9054 231.667,-39.7387 227.833,-39.7387"/>
<text text-anchor="middle" x="167" y="-24.5387" font-family="Arial" font-size="14.00" fill="#c6c5fe">types/urlencoded.js</text>
</g>
<!-- main.js&#45;&gt;types/urlencoded.js -->
<g id="edge3" class="edge"><title>main.js&#45;&gt;types/urlencoded.js</title>
<path fill="none" stroke="#757575" d="M61.7389,-28.2387C69.7229,-28.2387 78.7418,-28.2387 88.0507,-28.2387"/>
<polygon fill="#757575" stroke="#757575" points="88.2302,-31.7388 98.2302,-28.2387 88.2302,-24.7388 88.2302,-31.7388"/>
</g>
<!-- utils.js -->
<g id="node6" class="node"><title>utils.js</title>
<path fill="none" stroke="#c6c5fe" d="M319.833,-39.7387C319.833,-39.7387 280.167,-39.7387 280.167,-39.7387 276.333,-39.7387 272.5,-35.9054 272.5,-32.0721 272.5,-32.0721 272.5,-24.4054 272.5,-24.4054 272.5,-20.5721 276.333,-16.7387 280.167,-16.7387 280.167,-16.7387 319.833,-16.7387 319.833,-16.7387 323.667,-16.7387 327.5,-20.5721 327.5,-24.4054 327.5,-24.4054 327.5,-32.0721 327.5,-32.0721 327.5,-35.9054 323.667,-39.7387 319.833,-39.7387"/>
<text text-anchor="middle" x="300" y="-24.5387" font-family="Arial" font-size="14.00" fill="#c6c5fe">utils.js</text>
</g>
<!-- main.js&#45;&gt;utils.js -->
<g id="edge4" class="edge"><title>main.js&#45;&gt;utils.js</title>
<path fill="none" stroke="#757575" d="M60.7769,-16.9608C72.179,-13.0566 85.5239,-9.17573 98,-7.23874 158.607,2.17091 175.459,2.58577 236,-7.23874 244.752,-8.65901 253.931,-11.1212 262.491,-13.8711"/>
<polygon fill="#757575" stroke="#757575" points="261.598,-17.2645 272.193,-17.1861 263.862,-10.6406 261.598,-17.2645"/>
</g>
<!-- types/multipart.js&#45;&gt;utils.js -->
<g id="edge5" class="edge"><title>types/multipart.js&#45;&gt;utils.js</title>
<path fill="none" stroke="#757575" d="M204.719,-57.957C214.858,-54.8259 225.86,-51.4141 236,-48.2387 244.673,-45.523 254.009,-42.5735 262.768,-39.7947"/>
<polygon fill="#757575" stroke="#757575" points="263.875,-43.1155 272.345,-36.7516 261.755,-36.4441 263.875,-43.1155"/>
</g>
<!-- types/urlencoded.js&#45;&gt;utils.js -->
<g id="edge6" class="edge"><title>types/urlencoded.js&#45;&gt;utils.js</title>
<path fill="none" stroke="#757575" d="M235.802,-28.2387C244.933,-28.2387 254.004,-28.2387 262.304,-28.2387"/>
<polygon fill="#757575" stroke="#757575" points="262.352,-31.7388 272.352,-28.2387 262.352,-24.7388 262.352,-31.7388"/>
</g>
<!-- utils.js&#45;&gt;../deps/encoding/encoding.js -->
<g id="edge7" class="edge"><title>utils.js&#45;&gt;../deps/encoding/encoding.js</title>
<path fill="none" stroke="#757575" d="M327.613,-28.2387C335.355,-28.2387 344.322,-28.2387 353.869,-28.2387"/>
<polygon fill="#757575" stroke="#757575" points="354,-31.7388 364,-28.2387 354,-24.7388 354,-31.7388"/>
</g>
</g>
</svg>
